<svg xmlns="http://www.w3.org/2000/svg" width="1280" height="720" viewBox="0 0 1280 720" role="img" aria-labelledby="title desc">
  <title id="title">Local Meeting STT app preview</title>
  <desc id="desc">A compact desktop control panel for local meeting recording and speech-to-text.</desc>
  <rect width="1280" height="720" fill="#ffffff"/>
  <rect x="0" y="0" width="1280" height="36" fill="#111111"/>
  <rect x="10" y="8" width="22" height="22" rx="5" fill="#111111" stroke="#3f3f46"/>
  <text x="42" y="23" fill="#f8f9fa" font-family="Segoe UI, Arial, sans-serif" font-size="13" font-weight="600">Local Meeting STT</text>
  <text x="176" y="23" fill="#d1d5db" font-family="Segoe UI, Arial, sans-serif" font-size="12">File</text>
  <text x="216" y="23" fill="#d1d5db" font-family="Segoe UI, Arial, sans-serif" font-size="12">Run</text>
  <text x="256" y="23" fill="#d1d5db" font-family="Segoe UI, Arial, sans-serif" font-size="12">View</text>
  <text x="310" y="23" fill="#d1d5db" font-family="Segoe UI, Arial, sans-serif" font-size="12">Window</text>
  <text x="380" y="23" fill="#d1d5db" font-family="Segoe UI, Arial, sans-serif" font-size="12">Help</text>

  <rect x="14" y="52" width="220" height="640" rx="10" fill="#f8f9fa" stroke="#e5e7eb"/>
  <rect x="28" y="68" width="42" height="42" rx="8" fill="#111111"/>
  <text x="39" y="94" fill="#ffffff" font-family="Segoe UI, Arial, sans-serif" font-size="12" font-weight="700">STT</text>
  <text x="82" y="82" fill="#111111" font-family="Segoe UI, Arial, sans-serif" font-size="20" font-weight="700">Meeting STT</text>
  <text x="82" y="103" fill="#6b7280" font-family="Segoe UI, Arial, sans-serif" font-size="13">Local control panel</text>
  <line x1="28" y1="124" x2="220" y2="124" stroke="#e5e7eb"/>
  <rect x="28" y="142" width="192" height="38" rx="6" fill="#111111"/>
  <text x="42" y="166" fill="#ffffff" font-family="Segoe UI, Arial, sans-serif" font-size="15">Live</text>
  <rect x="28" y="190" width="192" height="38" rx="6" fill="#ffffff" stroke="#e5e7eb"/>
  <text x="42" y="214" fill="#374151" font-family="Segoe UI, Arial, sans-serif" font-size="15">Record</text>
  <rect x="28" y="238" width="192" height="38" rx="6" fill="#ffffff" stroke="#e5e7eb"/>
  <text x="42" y="262" fill="#374151" font-family="Segoe UI, Arial, sans-serif" font-size="15">Transcribe</text>
  <rect x="28" y="286" width="192" height="38" rx="6" fill="#ffffff" stroke="#e5e7eb"/>
  <text x="42" y="310" fill="#374151" font-family="Segoe UI, Arial, sans-serif" font-size="15">Setup</text>
  <rect x="28" y="642" width="192" height="34" rx="17" fill="#ffffff" stroke="#e5e7eb"/>
  <circle cx="86" cy="659" r="4" fill="#9ca3af"/>
  <text x="102" y="664" fill="#6b7280" font-family="Segoe UI, Arial, sans-serif" font-size="12">Idle</text>

  <rect x="250" y="52" width="990" height="118" rx="10" fill="#ffffff" stroke="#e5e7eb"/>
  <text x="274" y="88" fill="#6b7280" font-family="Segoe UI, Arial, sans-serif" font-size="12" font-weight="700">LIVE</text>
  <text x="274" y="122" fill="#111111" font-family="Segoe UI, Arial, sans-serif" font-size="30" font-weight="700">Live Meeting</text>
  <text x="274" y="146" fill="#6b7280" font-family="Segoe UI, Arial, sans-serif" font-size="14">Start a recorder and keep the rough transcript visible while logs stream beside it.</text>

  <rect x="250" y="186" width="340" height="482" rx="10" fill="#ffffff" stroke="#e5e7eb"/>
  <text x="274" y="222" fill="#111111" font-family="Segoe UI, Arial, sans-serif" font-size="15" font-weight="700">Engine</text>
  <text x="274" y="258" fill="#6b7280" font-family="Segoe UI, Arial, sans-serif" font-size="12">Chunk seconds</text>
  <rect x="274" y="270" width="292" height="38" rx="6" fill="#ffffff" stroke="#e5e7eb"/>
  <text x="290" y="294" fill="#111111" font-family="Segoe UI, Arial, sans-serif" font-size="16">3</text>
  <rect x="274" y="330" width="292" height="38" rx="6" fill="#ffffff" stroke="#e5e7eb"/>
  <text x="382" y="354" fill="#111111" font-family="Segoe UI, Arial, sans-serif" font-size="15">Live + WAV</text>
  <rect x="274" y="380" width="292" height="38" rx="6" fill="#ffffff" stroke="#e5e7eb"/>
  <text x="390" y="404" fill="#111111" font-family="Segoe UI, Arial, sans-serif" font-size="15">Live Text</text>
  <rect x="274" y="430" width="292" height="38" rx="6" fill="#ffffff" stroke="#e5e7eb"/>
  <text x="393" y="454" fill="#111111" font-family="Segoe UI, Arial, sans-serif" font-size="15">CPP GPU</text>
  <rect x="274" y="480" width="292" height="38" rx="6" fill="#ffffff" stroke="#e5e7eb"/>
  <text x="395" y="504" fill="#111111" font-family="Segoe UI, Arial, sans-serif" font-size="15">CPP CPU</text>
  <rect x="274" y="542" width="292" height="38" rx="6" fill="#fff7f7" stroke="#f4c7c3"/>
  <text x="360" y="566" fill="#b42318" font-family="Segoe UI, Arial, sans-serif" font-size="15">Stop active process</text>

  <rect x="606" y="186" width="634" height="248" rx="10" fill="#ffffff" stroke="#e5e7eb"/>
  <rect x="606" y="186" width="634" height="48" rx="10" fill="#f8f9fa"/>
  <line x1="606" y1="234" x2="1240" y2="234" stroke="#e5e7eb"/>
  <text x="622" y="216" fill="#111111" font-family="Segoe UI, Arial, sans-serif" font-size="15" font-weight="700">Live transcript</text>
  <text x="626" y="272" fill="#111111" font-family="Cascadia Mono, Consolas, monospace" font-size="15">[10:45:21] はじめまして 音声大丈夫でしょうか</text>
  <text x="626" y="304" fill="#111111" font-family="Cascadia Mono, Consolas, monospace" font-size="15">[10:45:33] 大丈夫ですよ。よろしくお願いいたします。</text>

  <rect x="606" y="452" width="634" height="216" rx="10" fill="#ffffff" stroke="#e5e7eb"/>
  <rect x="606" y="452" width="634" height="48" rx="10" fill="#f8f9fa"/>
  <line x1="606" y1="500" x2="1240" y2="500" stroke="#e5e7eb"/>
  <text x="622" y="482" fill="#111111" font-family="Segoe UI, Arial, sans-serif" font-size="15" font-weight="700">Process log</text>
  <rect x="1170" y="464" width="54" height="28" rx="6" fill="#ffffff" stroke="#e5e7eb"/>
  <text x="1185" y="483" fill="#111111" font-family="Segoe UI, Arial, sans-serif" font-size="13">Clear</text>
  <text x="626" y="536" fill="#6b7280" font-family="Cascadia Mono, Consolas, monospace" font-size="14">Model: models\faster-whisper-small</text>
  <text x="626" y="564" fill="#6b7280" font-family="Cascadia Mono, Consolas, monospace" font-size="14">System loopback: Speakers (INZONE Buds - Game)</text>
</svg>
